<svg xmlns="http://www.w3.org/2000/svg" xmlns:xlink="http://www.w3.org/1999/xlink" width="470" zoomAndPan="magnify" viewBox="0 0 352.5 142.499996" height="190" preserveAspectRatio="xMidYMid meet" version="1.0"><defs><g/><clipPath id="92d4a0fcfb"><path d="M 87.027344 44.613281 L 105.628906 44.613281 L 105.628906 63.214844 L 87.027344 63.214844 Z M 87.027344 44.613281 " clip-rule="nonzero"/></clipPath><clipPath id="ad8d637ddd"><path d="M 96.328125 44.613281 C 91.191406 44.613281 87.027344 48.777344 87.027344 53.914062 C 87.027344 59.050781 91.191406 63.214844 96.328125 63.214844 C 101.464844 63.214844 105.628906 59.050781 105.628906 53.914062 C 105.628906 48.777344 101.464844 44.613281 96.328125 44.613281 Z M 96.328125 44.613281 " clip-rule="nonzero"/></clipPath><clipPath id="c74cfc3dde"><path d="M 0.0273438 0.613281 L 18.628906 0.613281 L 18.628906 19.214844 L 0.0273438 19.214844 Z M 0.0273438 0.613281 " clip-rule="nonzero"/></clipPath><clipPath id="71a6ec6210"><path d="M 9.328125 0.613281 C 4.191406 0.613281 0.0273438 4.777344 0.0273438 9.914062 C 0.0273438 15.050781 4.191406 19.214844 9.328125 19.214844 C 14.464844 19.214844 18.628906 15.050781 18.628906 9.914062 C 18.628906 4.777344 14.464844 0.613281 9.328125 0.613281 Z M 9.328125 0.613281 " clip-rule="nonzero"/></clipPath><clipPath id="d29b30826b"><rect x="0" width="19" y="0" height="20"/></clipPath><clipPath id="8638f26a18"><path d="M 25 18 L 308.777344 18 L 308.777344 95 L 25 95 Z M 25 18 " clip-rule="nonzero"/></clipPath><clipPath id="952b25df38"><rect x="0" width="284" y="0" height="77"/></clipPath><clipPath id="38124e418b"><path d="M 76 27 L 87 27 L 87 40 L 76 40 Z M 76 27 " clip-rule="nonzero"/></clipPath><clipPath id="1494ebb43f"><path d="M -7.632812 -8.785156 L 79.074219 -24.972656 L 95.261719 61.738281 L 8.550781 77.921875 Z M -7.632812 -8.785156 " clip-rule="nonzero"/></clipPath><clipPath id="28fd311426"><path d="M -7.632812 -8.785156 L 79.074219 -24.972656 L 95.261719 61.738281 L 8.550781 77.921875 Z M -7.632812 -8.785156 " clip-rule="nonzero"/></clipPath><clipPath id="40e2a9e04b"><path d="M -7.632812 -8.785156 L 79.230469 -25 L 95.441406 61.863281 L 8.582031 78.074219 Z M -7.632812 -8.785156 " clip-rule="nonzero"/></clipPath><clipPath id="9aab299ada"><path d="M 65 14 L 88 14 L 88 40 L 65 40 Z M 65 14 " clip-rule="nonzero"/></clipPath><clipPath id="733d9a00ae"><path d="M -7.632812 -8.785156 L 79.074219 -24.972656 L 95.261719 61.738281 L 8.550781 77.921875 Z M -7.632812 -8.785156 " clip-rule="nonzero"/></clipPath><clipPath id="42969236c0"><path d="M -7.632812 -8.785156 L 79.074219 -24.972656 L 95.261719 61.738281 L 8.550781 77.921875 Z M -7.632812 -8.785156 " clip-rule="nonzero"/></clipPath><clipPath id="9cc668fece"><path d="M -7.632812 -8.785156 L 79.230469 -25 L 95.441406 61.863281 L 8.582031 78.074219 Z M -7.632812 -8.785156 " clip-rule="nonzero"/></clipPath><clipPath id="ce0edeb3f5"><path d="M 4 6 L 83 6 L 83 38 L 4 38 Z M 4 6 " clip-rule="nonzero"/></clipPath><clipPath id="2297b48d1d"><path d="M -7.632812 -8.785156 L 79.074219 -24.972656 L 95.261719 61.738281 L 8.550781 77.921875 Z M -7.632812 -8.785156 " clip-rule="nonzero"/></clipPath><clipPath id="fb29f022be"><path d="M -7.632812 -8.785156 L 79.074219 -24.972656 L 95.261719 61.738281 L 8.550781 77.921875 Z M -7.632812 -8.785156 " clip-rule="nonzero"/></clipPath><clipPath id="64882b85d2"><path d="M -7.632812 -8.785156 L 79.230469 -25 L 95.441406 61.863281 L 8.582031 78.074219 Z M -7.632812 -8.785156 " clip-rule="nonzero"/></clipPath><clipPath id="30b92acb67"><path d="M 22 22 L 68 22 L 68 46 L 22 46 Z M 22 22 " clip-rule="nonzero"/></clipPath><clipPath id="9251674817"><path d="M -7.632812 -8.785156 L 79.074219 -24.972656 L 95.261719 61.738281 L 8.550781 77.921875 Z M -7.632812 -8.785156 " clip-rule="nonzero"/></clipPath><clipPath id="a794f40812"><path d="M -7.632812 -8.785156 L 79.074219 -24.972656 L 95.261719 61.738281 L 8.550781 77.921875 Z M -7.632812 -8.785156 " clip-rule="nonzero"/></clipPath><clipPath id="d6e79aac9c"><path d="M -7.632812 -8.785156 L 79.230469 -25 L 95.441406 61.863281 L 8.582031 78.074219 Z M -7.632812 -8.785156 " clip-rule="nonzero"/></clipPath><clipPath id="35adddd765"><path d="M 23 21 L 65 21 L 65 36 L 23 36 Z M 23 21 " clip-rule="nonzero"/></clipPath><clipPath id="adab4941ff"><path d="M -7.632812 -8.785156 L 79.074219 -24.972656 L 95.261719 61.738281 L 8.550781 77.921875 Z M -7.632812 -8.785156 " clip-rule="nonzero"/></clipPath><clipPath id="0cda1d4332"><path d="M -7.632812 -8.785156 L 79.074219 -24.972656 L 95.261719 61.738281 L 8.550781 77.921875 Z M -7.632812 -8.785156 " clip-rule="nonzero"/></clipPath><clipPath id="62681da0dd"><path d="M -7.632812 -8.785156 L 79.230469 -25 L 95.441406 61.863281 L 8.582031 78.074219 Z M -7.632812 -8.785156 " clip-rule="nonzero"/></clipPath><clipPath id="27ec213a2b"><path d="M 140.867188 43.324219 L 160.757812 43.324219 L 160.757812 63.214844 L 140.867188 63.214844 Z M 140.867188 43.324219 " clip-rule="nonzero"/></clipPath><clipPath id="352dddaa6f"><path d="M 150.8125 43.324219 C 145.320312 43.324219 140.867188 47.777344 140.867188 53.269531 C 140.867188 58.761719 145.320312 63.214844 150.8125 63.214844 C 156.304688 63.214844 160.757812 58.761719 160.757812 53.269531 C 160.757812 47.777344 156.304688 43.324219 150.8125 43.324219 Z M 150.8125 43.324219 " clip-rule="nonzero"/></clipPath><clipPath id="af90e403b9"><path d="M 0.867188 0.324219 L 20.757812 0.324219 L 20.757812 20.214844 L 0.867188 20.214844 Z M 0.867188 0.324219 " clip-rule="nonzero"/></clipPath><clipPath id="04c84b75ea"><path d="M 10.8125 0.324219 C 5.320312 0.324219 0.867188 4.777344 0.867188 10.269531 C 0.867188 15.761719 5.320312 20.214844 10.8125 20.214844 C 16.304688 20.214844 20.757812 15.761719 20.757812 10.269531 C 20.757812 4.777344 16.304688 0.324219 10.8125 0.324219 Z M 10.8125 0.324219 " clip-rule="nonzero"/></clipPath><clipPath id="404f30573a"><rect x="0" width="21" y="0" height="21"/></clipPath><clipPath id="394a7363c6"><path d="M 111 75 L 137 75 L 137 98 L 111 98 Z M 111 75 " clip-rule="nonzero"/></clipPath><clipPath id="83c3c40f9a"><path d="M 137.253906 97.539062 L 111.582031 98.050781 L 111.136719 75.621094 L 136.804688 75.109375 Z M 137.253906 97.539062 " clip-rule="nonzero"/></clipPath><clipPath id="5f858a4eb7"><path d="M 124.4375 97.792969 L 111.171875 75.621094 L 136.804688 75.109375 Z M 124.4375 97.792969 " clip-rule="nonzero"/></clipPath><clipPath id="2c543f1ac9"><path d="M 0 0 L 25.820312 0 L 25.820312 22.929688 L 0 22.929688 Z M 0 0 " clip-rule="nonzero"/></clipPath><clipPath id="593087a725"><path d="M 26.253906 22.539062 L 0.582031 23.050781 L 0.136719 0.621094 L 25.804688 0.109375 Z M 26.253906 22.539062 " clip-rule="nonzero"/></clipPath><clipPath id="1f27665dfc"><path d="M 13.4375 22.792969 L 0.171875 0.621094 L 25.804688 0.109375 Z M 13.4375 22.792969 " clip-rule="nonzero"/></clipPath><clipPath id="96e525481d"><rect x="0" width="26" y="0" height="23"/></clipPath><clipPath id="1940feb7fb"><rect x="0" width="309" y="0" height="99"/></clipPath></defs><g transform="matrix(1, 0, 0, 1, 8, 25)"><g clip-path="url(#1940feb7fb)"><g clip-path="url(#92d4a0fcfb)"><g clip-path="url(#ad8d637ddd)"><g transform="matrix(1, 0, 0, 1, 87, 44)"><g clip-path="url(#d29b30826b)"><g clip-path="url(#c74cfc3dde)"><g clip-path="url(#71a6ec6210)"><path fill="#2b2a2b" d="M 0.0273438 0.613281 L 18.628906 0.613281 L 18.628906 19.214844 L 0.0273438 19.214844 Z M 0.0273438 0.613281 " fill-opacity="1" fill-rule="nonzero"/></g></g></g></g></g></g><g clip-path="url(#8638f26a18)"><g transform="matrix(1, 0, 0, 1, 25, 18)"><g clip-path="url(#952b25df38)"><g fill="#7ed957" fill-opacity="1"><g transform="translate(1.060463, 56.503404)"><g><path d="M 34.4375 -23.984375 C 36.53125 -23.085938 38.203125 -21.75 39.453125 -19.96875 C 40.710938 -18.1875 41.34375 -15.878906 41.34375 -13.046875 C 41.34375 -10.160156 40.710938 -7.75 39.453125 -5.8125 C 38.203125 -3.875 36.488281 -2.421875 34.3125 -1.453125 C 32.132812 -0.484375 29.710938 0 27.046875 0 L 4.328125 0 L 4.328125 -47.171875 L 25.234375 -47.171875 C 27.960938 -47.171875 30.410156 -46.660156 32.578125 -45.640625 C 34.753906 -44.617188 36.5 -43.125 37.8125 -41.15625 C 39.125 -39.1875 39.78125 -36.757812 39.78125 -33.875 C 39.78125 -31.414062 39.304688 -29.375 38.359375 -27.75 C 37.421875 -26.125 36.113281 -24.867188 34.4375 -23.984375 Z M 27.75 -32.546875 C 27.75 -33.648438 27.351562 -34.617188 26.5625 -35.453125 C 25.78125 -36.296875 24.835938 -36.71875 23.734375 -36.71875 L 16.359375 -36.71875 L 16.359375 -28.375 L 23.734375 -28.375 C 24.835938 -28.375 25.78125 -28.804688 26.5625 -29.671875 C 27.351562 -30.535156 27.75 -31.492188 27.75 -32.546875 Z M 25.234375 -10.453125 C 26.441406 -10.453125 27.425781 -10.867188 28.1875 -11.703125 C 28.945312 -12.546875 29.328125 -13.519531 29.328125 -14.625 C 29.328125 -15.664062 28.945312 -16.617188 28.1875 -17.484375 C 27.425781 -18.347656 26.441406 -18.78125 25.234375 -18.78125 L 16.359375 -18.78125 L 16.359375 -10.453125 Z M 25.234375 -10.453125 "/></g></g></g><g fill="#7ed957" fill-opacity="1"><g transform="translate(44.221142, 56.503404)"><g><path d="M 26.890625 0.625 C 23.535156 0.625 20.390625 0 17.453125 -1.25 C 14.515625 -2.507812 11.945312 -4.253906 9.75 -6.484375 C 7.550781 -8.710938 5.820312 -11.28125 4.5625 -14.1875 C 3.300781 -17.09375 2.671875 -20.222656 2.671875 -23.578125 C 2.671875 -26.929688 3.300781 -30.0625 4.5625 -32.96875 C 5.820312 -35.882812 7.550781 -38.457031 9.75 -40.6875 C 11.945312 -42.914062 14.515625 -44.65625 17.453125 -45.90625 C 20.390625 -47.164062 23.535156 -47.796875 26.890625 -47.796875 C 30.242188 -47.796875 33.375 -47.164062 36.28125 -45.90625 C 39.1875 -44.65625 41.753906 -42.914062 43.984375 -40.6875 C 46.210938 -38.457031 47.953125 -35.882812 49.203125 -32.96875 C 50.460938 -30.0625 51.09375 -26.929688 51.09375 -23.578125 C 51.09375 -20.222656 50.460938 -17.09375 49.203125 -14.1875 C 47.953125 -11.28125 46.210938 -8.710938 43.984375 -6.484375 C 41.753906 -4.253906 39.1875 -2.507812 36.28125 -1.25 C 33.375 0 30.242188 0.625 26.890625 0.625 Z M 26.890625 -11.15625 C 29.242188 -11.15625 31.363281 -11.691406 33.25 -12.765625 C 35.132812 -13.847656 36.613281 -15.332031 37.6875 -17.21875 C 38.769531 -19.101562 39.3125 -21.222656 39.3125 -23.578125 C 39.3125 -25.992188 38.769531 -28.128906 37.6875 -29.984375 C 36.613281 -31.847656 35.132812 -33.316406 33.25 -34.390625 C 31.363281 -35.460938 29.242188 -36 26.890625 -36 C 24.523438 -36 22.398438 -35.460938 20.515625 -34.390625 C 18.628906 -33.316406 17.132812 -31.847656 16.03125 -29.984375 C 14.9375 -28.128906 14.390625 -25.992188 14.390625 -23.578125 C 14.390625 -21.222656 14.9375 -19.101562 16.03125 -17.21875 C 17.132812 -15.332031 18.628906 -13.847656 20.515625 -12.765625 C 22.398438 -11.691406 24.523438 -11.15625 26.890625 -11.15625 Z M 26.890625 -11.15625 "/></g></g></g><g fill="#7ed957" fill-opacity="1"><g transform="translate(97.916492, 56.503404)"><g><path d="M 26.890625 0.625 C 23.535156 0.625 20.390625 0 17.453125 -1.25 C 14.515625 -2.507812 11.945312 -4.253906 9.75 -6.484375 C 7.550781 -8.710938 5.820312 -11.28125 4.5625 -14.1875 C 3.300781 -17.09375 2.671875 -20.222656 2.671875 -23.578125 C 2.671875 -26.929688 3.300781 -30.0625 4.5625 -32.96875 C 5.820312 -35.882812 7.550781 -38.457031 9.75 -40.6875 C 11.945312 -42.914062 14.515625 -44.65625 17.453125 -45.90625 C 20.390625 -47.164062 23.535156 -47.796875 26.890625 -47.796875 C 30.242188 -47.796875 33.375 -47.164062 36.28125 -45.90625 C 39.1875 -44.65625 41.753906 -42.914062 43.984375 -40.6875 C 46.210938 -38.457031 47.953125 -35.882812 49.203125 -32.96875 C 50.460938 -30.0625 51.09375 -26.929688 51.09375 -23.578125 C 51.09375 -20.222656 50.460938 -17.09375 49.203125 -14.1875 C 47.953125 -11.28125 46.210938 -8.710938 43.984375 -6.484375 C 41.753906 -4.253906 39.1875 -2.507812 36.28125 -1.25 C 33.375 0 30.242188 0.625 26.890625 0.625 Z M 26.890625 -11.15625 C 29.242188 -11.15625 31.363281 -11.691406 33.25 -12.765625 C 35.132812 -13.847656 36.613281 -15.332031 37.6875 -17.21875 C 38.769531 -19.101562 39.3125 -21.222656 39.3125 -23.578125 C 39.3125 -25.992188 38.769531 -28.128906 37.6875 -29.984375 C 36.613281 -31.847656 35.132812 -33.316406 33.25 -34.390625 C 31.363281 -35.460938 29.242188 -36 26.890625 -36 C 24.523438 -36 22.398438 -35.460938 20.515625 -34.390625 C 18.628906 -33.316406 17.132812 -31.847656 16.03125 -29.984375 C 14.9375 -28.128906 14.390625 -25.992188 14.390625 -23.578125 C 14.390625 -21.222656 14.9375 -19.101562 16.03125 -17.21875 C 17.132812 -15.332031 18.628906 -13.847656 20.515625 -12.765625 C 22.398438 -11.691406 24.523438 -11.15625 26.890625 -11.15625 Z M 26.890625 -11.15625 "/></g></g></g><g fill="#7ed957" fill-opacity="1"><g transform="translate(151.611842, 56.503404)"><g><path d="M 34.203125 0 L 17.140625 -21.0625 L 16.359375 -21.0625 L 16.359375 0 L 4.328125 0 L 4.328125 -47.171875 L 16.359375 -47.171875 L 16.359375 -31.359375 L 17.6875 -31.359375 L 31.921875 -47.171875 L 47.25 -47.171875 L 27.359375 -26.5 L 50.15625 0 Z M 34.203125 0 "/></g></g></g><g fill="#7ed957" fill-opacity="1"><g transform="translate(199.804014, 56.503404)"><g><path d="M 5.578125 -12.578125 L 5.578125 -20.125 L 27.59375 -20.125 L 27.59375 -12.578125 Z M 5.578125 -12.578125 "/></g></g></g><g fill="#e44859" fill-opacity="1"><g transform="translate(233.069458, 56.503404)"><g><path d="M 16.359375 -10.453125 L 31.359375 -10.453125 L 31.359375 0 L 4.328125 0 L 4.328125 -47.171875 L 16.359375 -47.171875 Z M 16.359375 -10.453125 "/></g></g></g><g fill="#f14d60" fill-opacity="1"><g transform="translate(264.445314, 56.503404)"><g/></g></g></g></g></g><g clip-path="url(#38124e418b)"><g clip-path="url(#1494ebb43f)"><g clip-path="url(#28fd311426)"><g clip-path="url(#40e2a9e04b)"><path fill="#ffb655" d="M 76.882812 27.851562 C 78.039062 28.011719 78.960938 29.117188 79.695312 29.929688 C 80.519531 30.847656 81.480469 31.398438 82.363281 32.257812 C 82.964844 32.84375 83.636719 33.347656 84.359375 33.773438 C 85.085938 34.199219 85.742188 34.246094 86.492188 34.550781 C 86.191406 34.917969 85.804688 35.371094 85.589844 35.808594 C 84.441406 35.203125 83.300781 34.613281 82.226562 33.859375 C 82.542969 34.53125 83.035156 35.195312 83.460938 35.832031 C 83.746094 36.265625 84.503906 36.875 84.59375 37.363281 C 84.03125 37.5625 83.496094 37.980469 83.066406 38.382812 C 82.269531 37.285156 81.625 35.960938 80.875 34.800781 C 81.128906 35.484375 81.386719 36.183594 81.617188 36.886719 C 81.835938 37.546875 81.949219 38.429688 82.253906 39.023438 C 81.992188 39.269531 81.585938 39.566406 81.222656 39.621094 C 80.496094 37.695312 79.824219 35.773438 79.070312 33.871094 C 78.296875 31.921875 76.792969 30.042969 76.882812 27.851562 Z M 76.882812 27.851562 " fill-opacity="1" fill-rule="nonzero"/></g></g></g></g><g clip-path="url(#9aab299ada)"><g clip-path="url(#733d9a00ae)"><g clip-path="url(#42969236c0)"><g clip-path="url(#9cc668fece)"><path stroke-linecap="butt" transform="matrix(0.21161, -0.0318999, 0.0318999, 0.21161, 76.395033, 27.26053)" fill="none" stroke-linejoin="miter" d="M -7.241972 -16.998323 C -0.591648 -7.356676 3.523063 6.369967 7.256453 16.993284 " stroke="#ffb655" stroke-width="3" stroke-opacity="1" stroke-miterlimit="10"/></g></g></g></g><g clip-path="url(#ce0edeb3f5)"><g clip-path="url(#2297b48d1d)"><g clip-path="url(#fb29f022be)"><g clip-path="url(#64882b85d2)"><path fill="#000000" d="M 76.554688 24.15625 C 74.683594 25.199219 72.707031 26.03125 70.773438 27.027344 C 61.578125 31.738281 50.613281 31.535156 40.566406 33.1875 C 37.027344 33.769531 33.507812 34.4375 29.980469 35.082031 C 27.664062 35.5 25.429688 36.589844 23.160156 36.894531 C 20.039062 37.316406 16.601562 36.636719 13.429688 36.738281 C 10.304688 36.839844 7.214844 37.03125 4.097656 36.929688 C 6.367188 35.578125 8.265625 33.4375 10.355469 31.828125 C 12.847656 29.910156 15.417969 28.09375 17.792969 26.03125 C 22.378906 22.050781 27.292969 18.429688 31.617188 14.167969 C 32.976562 12.828125 34.414062 11.523438 35.828125 10.226562 C 36.417969 9.6875 36.996094 9.109375 37.566406 8.550781 C 37.765625 8.355469 39.292969 6.351562 39.460938 6.425781 C 41.53125 7.300781 43.710938 8.433594 45.855469 9.332031 C 48.003906 10.234375 50.203125 10.4375 52.390625 11.21875 C 56.5625 12.71875 60.824219 13.933594 65.1875 14.996094 C 67.078125 15.457031 68.90625 16.007812 70.789062 16.492188 C 72.734375 16.988281 74.785156 17.496094 76.753906 17.84375 C 77.503906 17.976562 82.605469 19.15625 82.964844 18.769531 C 82.875 18.867188 82.78125 18.96875 82.6875 19.066406 C 81.140625 20.726562 79.496094 22.371094 77.558594 23.566406 C 77.226562 23.773438 76.894531 23.96875 76.554688 24.15625 Z M 76.554688 24.15625 " fill-opacity="1" fill-rule="nonzero"/></g></g></g></g><g clip-path="url(#30b92acb67)"><g clip-path="url(#9251674817)"><g clip-path="url(#a794f40812)"><g clip-path="url(#d6e79aac9c)"><path fill="#000000" d="M 23.90625 36.839844 C 23.390625 34.964844 22.65625 32.316406 22.859375 32.167969 C 32.917969 24.882812 45.730469 21.507812 58.074219 22.886719 C 59.800781 23.082031 62.175781 23.425781 63.644531 24.464844 C 65.136719 25.515625 65.242188 27.742188 65.660156 29.382812 C 66.09375 31.09375 67.234375 32.308594 67.992188 33.835938 C 61.183594 33.859375 55.105469 34.375 49.480469 38.847656 C 48.898438 39.308594 48.3125 39.816406 47.59375 40.015625 C 46.867188 40.21875 46.09375 40.085938 45.347656 39.972656 C 37.863281 38.867188 30.871094 41.40625 24.253906 45.074219 C 24.242188 42.878906 24.6875 40.816406 24.355469 38.597656 C 24.320312 38.367188 24.136719 37.683594 23.90625 36.839844 Z M 23.90625 36.839844 " fill-opacity="1" fill-rule="nonzero"/></g></g></g></g><g clip-path="url(#35adddd765)"><g clip-path="url(#adab4941ff)"><g clip-path="url(#0cda1d4332)"><g clip-path="url(#62681da0dd)"><path stroke-linecap="round" transform="matrix(0.21161, -0.0318999, 0.0318999, 0.21161, 43.625303, 27.378275)" fill="none" stroke-linejoin="round" d="M -94.74846 20.774668 C -92.477999 10.2442 -86.671275 3.440338 -76.829985 -0.98319 C -59.623984 -8.708357 -39.946827 -13.845841 -21.457842 -17.224176 C -1.981307 -20.785913 16.963378 -20.329783 36.491731 -18.235054 C 50.097861 -16.774657 66.418849 -15.200353 78.789385 -8.849815 C 87.986746 -4.103667 92.203921 4.045147 94.741144 13.786676 " stroke="#ffb655" stroke-width="3" stroke-opacity="1" stroke-miterlimit="4"/></g></g></g></g><g clip-path="url(#27ec213a2b)"><g clip-path="url(#352dddaa6f)"><g transform="matrix(1, 0, 0, 1, 140, 43)"><g clip-path="url(#404f30573a)"><g clip-path="url(#af90e403b9)"><g clip-path="url(#04c84b75ea)"><path fill="#2b2a2b" d="M 0.867188 0.324219 L 20.757812 0.324219 L 20.757812 20.214844 L 0.867188 20.214844 Z M 0.867188 0.324219 " fill-opacity="1" fill-rule="nonzero"/></g></g></g></g></g></g><g clip-path="url(#394a7363c6)"><g clip-path="url(#83c3c40f9a)"><g clip-path="url(#5f858a4eb7)"><g transform="matrix(1, 0, 0, 1, 111, 75)"><g clip-path="url(#96e525481d)"><g clip-path="url(#2c543f1ac9)"><g clip-path="url(#593087a725)"><g clip-path="url(#1f27665dfc)"><path fill="#000000" d="M 26.253906 22.539062 L 0.582031 23.050781 L 0.136719 0.621094 L 25.804688 0.109375 Z M 26.253906 22.539062 " fill-opacity="1" fill-rule="nonzero"/></g></g></g></g></g></g></g></g></g></g></svg>